<svg class="animated" id="freepik_stories-images" xmlns="http://www.w3.org/2000/svg" viewBox="0 0 500 500" version="1.1" xmlns:xlink="http://www.w3.org/1999/xlink" xmlns:svgjs="http://svgjs.com/svgjs"><style>svg#freepik_stories-images:not(.animated) .animable {opacity: 0;}svg#freepik_stories-images.animated #freepik--background-complete--inject-85 {animation: 3s Infinite  linear wind;animation-delay: 0s;}svg#freepik_stories-images.animated #freepik--Images--inject-85 {animation: 3s Infinite  linear floating;animation-delay: 0s;}svg#freepik_stories-images.animated #freepik--Character--inject-85 {animation: 6s Infinite  linear floating;animation-delay: 0s;}            @keyframes wind {                0% {                    transform: rotate( 0deg );                }                25% {                    transform: rotate( 1deg );                }                75% {                    transform: rotate( -1deg );                }            }                    @keyframes floating {                0% {                    opacity: 1;                    transform: translateY(0px);                }                50% {                    transform: translateY(-10px);                }                100% {                    opacity: 1;                    transform: translateY(0px);                }            }        </style><g id="freepik--background-complete--inject-85" class="animable animator-active" style="transform-origin: 250px 225.125px;"><g id="freepik--background-complete--inject-85" class="animable" style="transform-origin: 250px 225.125px;"><rect y="382.4" width="500" height="0.25" style="fill: rgb(235, 235, 235); transform-origin: 250px 382.525px;" id="eltc00vao468" class="animable"></rect><rect x="142.02" y="388.44" width="10.48" height="0.25" style="fill: rgb(235, 235, 235); transform-origin: 147.26px 388.565px;" id="elatuiiguk0se" class="animable"></rect><rect x="448.33" y="395" width="17.85" height="0.25" style="fill: rgb(235, 235, 235); transform-origin: 457.255px 395.125px;" id="el1nvznp5croy" class="animable"></rect><rect x="322.74" y="388.56" width="59.15" height="0.25" style="fill: rgb(235, 235, 235); transform-origin: 352.315px 388.685px;" id="elk2jsbsyhqtd" class="animable"></rect><rect x="188.64" y="394.26" width="45.25" height="0.25" style="fill: rgb(235, 235, 235); transform-origin: 211.265px 394.385px;" id="eltmdu8dyq1k" class="animable"></rect><rect x="124" y="392.68" width="15.68" height="0.25" style="fill: rgb(235, 235, 235); transform-origin: 131.84px 392.805px;" id="elqmrqmz8zecm" class="animable"></rect><rect x="403.78" y="394.26" width="22.56" height="0.25" style="fill: rgb(235, 235, 235); transform-origin: 415.06px 394.385px;" id="el3tpddmbtmk3" class="animable"></rect><rect x="64.93" y="392.56" width="53.24" height="0.25" style="fill: rgb(235, 235, 235); transform-origin: 91.55px 392.685px;" id="elbxb9xfszccr" class="animable"></rect><path d="M237,337.8H43.91a5.71,5.71,0,0,1-5.7-5.71V60.66A5.71,5.71,0,0,1,43.91,55H237a5.71,5.71,0,0,1,5.71,5.71h0V332.09A5.71,5.71,0,0,1,237,337.8ZM43.91,55.2a5.46,5.46,0,0,0-5.45,5.46V332.09a5.46,5.46,0,0,0,5.45,5.46H237a5.48,5.48,0,0,0,5.46-5.46V60.66A5.48,5.48,0,0,0,237,55.2Z" style="fill: rgb(235, 235, 235); transform-origin: 140.46px 196.4px;" id="ela7z3a96tnxc" class="animable"></path><path d="M453.31,337.8H260.21a5.73,5.73,0,0,1-5.71-5.71V60.66A5.72,5.72,0,0,1,260.21,55h193.1A5.71,5.71,0,0,1,459,60.66V332.09A5.7,5.7,0,0,1,453.31,337.8ZM260.21,55.2a5.48,5.48,0,0,0-5.46,5.46V332.09a5.48,5.48,0,0,0,5.46,5.46h193.1a5.48,5.48,0,0,0,5.46-5.46V60.66a5.48,5.48,0,0,0-5.46-5.46Z" style="fill: rgb(235, 235, 235); transform-origin: 356.75px 196.4px;" id="el0ufnwpe4zqz" class="animable"></path><rect x="77.55" y="84.63" width="126.24" height="188.94" style="fill: rgb(230, 230, 230); transform-origin: 140.67px 179.1px;" id="ele5pjou2kg4e" class="animable"></rect><rect x="74.75" y="84.63" width="126.24" height="188.94" style="fill: rgb(245, 245, 245); transform-origin: 137.87px 179.1px;" id="elbru1ywuebdw" class="animable"></rect><rect x="79.78" y="90.29" width="116.17" height="177.63" style="fill: rgb(255, 255, 255); transform-origin: 137.865px 179.105px;" id="el21cuhv4wz6qj" class="animable"></rect><rect x="79.79" y="90.28" width="2.12" height="177.63" style="fill: rgb(230, 230, 230); transform-origin: 80.85px 179.095px;" id="elimcvp1owf6" class="animable"></rect><rect x="76.83" y="212.8" width="122.07" height="7.59" style="fill: rgb(245, 245, 245); transform-origin: 137.865px 216.595px;" id="el8qvmlvj9k2a" class="animable"></rect><g id="elutgp0e134xb"><rect x="69.51" y="76.05" width="129.4" height="38.86" style="fill: rgb(240, 240, 240); opacity: 0.4; isolation: isolate; transform-origin: 134.21px 95.48px;" class="animable" id="el3wxxfe9j5zv"></rect></g><path d="M69.26,75.27h140A.78.78,0,0,1,210,76h0a.78.78,0,0,1-.78.78h-140a.78.78,0,0,1-.77-.78h0A.79.79,0,0,1,69.26,75.27Z" style="fill: rgb(230, 230, 230); transform-origin: 139.225px 76.0248px;" id="elj1b6m4u3gvi" class="animable"></path><path d="M64.61,76a3.88,3.88,0,1,0,3.89-3.87h0A3.88,3.88,0,0,0,64.61,76Z" style="fill: rgb(230, 230, 230); transform-origin: 68.49px 76.01px;" id="el15tje9a2mpn" class="animable"></path><path d="M202.75,80.38h0a1.05,1.05,0,0,0,1.05-1V77.09a1.05,1.05,0,0,0-1.05-1h0a1,1,0,0,0-1.05,1v2.3a1,1,0,0,0,1,1Z" style="fill: rgb(230, 230, 230); transform-origin: 202.75px 78.2394px;" id="elq05gud72c1p" class="animable"></path><path d="M81,80.38h0a1,1,0,0,0,1-1V77.09a1,1,0,0,0-1-1h0a1,1,0,0,0-1,1v2.25a1,1,0,0,0,1,1Z" style="fill: rgb(230, 230, 230); transform-origin: 81px 78.235px;" id="el3g82b9sakm4" class="animable"></path><path d="M186.41,76a3.88,3.88,0,1,0,3.89-3.87h0A3.88,3.88,0,0,0,186.41,76Z" style="fill: rgb(230, 230, 230); transform-origin: 190.29px 76.01px;" id="elzjdt6mcb6g" class="animable"></path><rect x="392.71" y="296.3" width="36.52" height="80.96" style="fill: rgb(230, 230, 230); transform-origin: 410.97px 336.78px;" id="elz99v5ogb18" class="animable"></rect><rect x="242.14" y="377.27" width="180.08" height="5.13" style="fill: rgb(230, 230, 230); transform-origin: 332.18px 379.835px;" id="el63bdtdrscp3" class="animable"></rect><rect x="235.12" y="296.31" width="157.59" height="80.96" style="fill: rgb(245, 245, 245); transform-origin: 313.915px 336.79px;" id="elc829cvn2u" class="animable"></rect><rect x="249.48" y="306.27" width="128.88" height="26.55" style="fill: rgb(230, 230, 230); transform-origin: 313.92px 319.545px;" id="eljx5vooiijl" class="animable"></rect><rect x="249.48" y="340.75" width="128.88" height="26.55" style="fill: rgb(230, 230, 230); transform-origin: 313.92px 354.025px;" id="elfjgyc473iib" class="animable"></rect><rect x="295.88" y="317.73" width="36.06" height="3.64" rx="1.61" style="fill: rgb(245, 245, 245); transform-origin: 313.91px 319.55px;" id="elohyrgcyqy6" class="animable"></rect><rect x="295.88" y="352.2" width="36.06" height="3.64" rx="1.61" style="fill: rgb(245, 245, 245); transform-origin: 313.91px 354.02px;" id="eln1w55ln20b" class="animable"></rect><circle cx="349.17" cy="276.61" r="8.08" style="fill: rgb(245, 245, 245); transform-origin: 349.17px 276.61px;" id="el0dq4vix7jpcd" class="animable"></circle><circle cx="334.59" cy="274.81" r="8.05" style="fill: rgb(245, 245, 245); transform-origin: 334.59px 274.81px;" id="elcn4fgkxpa5k" class="animable"></circle><circle cx="295.67" cy="278.53" r="8.05" style="fill: rgb(245, 245, 245); transform-origin: 295.67px 278.53px;" id="el40tpjuhfz21" class="animable"></circle><circle cx="316.42" cy="282.25" r="8.05" style="fill: rgb(245, 245, 245); transform-origin: 316.42px 282.25px;" id="elscfmb282h6f" class="animable"></circle><path d="M370.63,277.79s-1.3,18.52-51.26,18.52-51.26-18.52-51.26-18.52Z" style="fill: rgb(230, 230, 230); transform-origin: 319.37px 287.05px;" id="eld0ipr83e4uf" class="animable"></path><rect x="182.27" y="298.33" width="18.23" height="79.06" style="fill: rgb(230, 230, 230); transform-origin: 191.385px 337.86px;" id="eltrt8jxamk1" class="animable"></rect><rect x="78.75" y="377.39" width="118.24" height="5.01" style="fill: rgb(230, 230, 230); transform-origin: 137.87px 379.895px;" id="elsueniqv36b7" class="animable"></rect><rect x="75.25" y="298.33" width="107.01" height="79.06" style="fill: rgb(245, 245, 245); transform-origin: 128.755px 337.86px;" id="el5t1k7hy6eqa" class="animable"></rect><rect x="82.42" y="308.06" width="92.68" height="25.93" style="fill: rgb(230, 230, 230); transform-origin: 128.76px 321.025px;" id="el1xasa2rzfd3" class="animable"></rect><rect x="82.42" y="341.73" width="92.68" height="25.93" style="fill: rgb(230, 230, 230); transform-origin: 128.76px 354.695px;" id="eltl7f8ga7bdm" class="animable"></rect><path d="M114.72,311.23h28.07a3.48,3.48,0,0,0,3.46-3.45h0a3.47,3.47,0,0,0-3.46-3.46H114.72a3.48,3.48,0,0,0-3.45,3.46h0A3.47,3.47,0,0,0,114.72,311.23Z" style="fill: rgb(245, 245, 245); transform-origin: 128.76px 307.775px;" id="elprh6lo2flr7" class="animable"></path><path d="M114.72,344.9h28.07a3.47,3.47,0,0,0,3.46-3.46h0a3.48,3.48,0,0,0-3.46-3.45H114.72a3.47,3.47,0,0,0-3.45,3.45h0A3.48,3.48,0,0,0,114.72,344.9Z" style="fill: rgb(245, 245, 245); transform-origin: 128.76px 341.445px;" id="elilhfzay0ri" class="animable"></path><rect x="279.65" y="102.04" width="52.34" height="106.54" style="fill: rgb(235, 235, 235); transform-origin: 305.82px 155.31px;" id="elzpu03mrkwz" class="animable"></rect><rect x="275.45" y="102.04" width="55.41" height="106.54" style="fill: rgb(245, 245, 245); transform-origin: 303.155px 155.31px;" id="elz8pgeoiygp" class="animable"></rect><rect x="283.5" y="110.1" width="39.29" height="90.42" style="fill: rgb(255, 255, 255); transform-origin: 303.145px 155.31px;" id="elpno0osu7l" class="animable"></rect><rect x="401.42" y="158.73" width="28.66" height="33.02" style="fill: rgb(235, 235, 235); transform-origin: 415.75px 175.24px;" id="ellxvpjyl3gv9" class="animable"></rect><rect x="395.62" y="158.73" width="31.06" height="33.02" style="fill: rgb(245, 245, 245); transform-origin: 411.15px 175.24px;" id="el50wh8ju5t0m" class="animable"></rect><rect x="398.23" y="161.34" width="25.85" height="27.81" style="fill: rgb(255, 255, 255); transform-origin: 411.155px 175.245px;" id="elmjzkj41b5an" class="animable"></rect><rect x="404.49" y="168.08" width="13.32" height="14.33" rx="2.28" style="fill: rgb(240, 240, 240); transform-origin: 411.15px 175.245px;" id="elaahkwttr2r" class="animable"></rect><rect x="378.32" y="112.79" width="28.66" height="33.02" style="fill: rgb(235, 235, 235); transform-origin: 392.65px 129.3px;" id="elsxr6zpmnkb" class="animable"></rect><rect x="372.53" y="112.79" width="31.06" height="33.02" style="fill: rgb(245, 245, 245); transform-origin: 388.06px 129.3px;" id="ell7wbfaw02x8" class="animable"></rect><rect x="375.14" y="115.39" width="25.85" height="27.81" style="fill: rgb(255, 255, 255); transform-origin: 388.065px 129.295px;" id="elnr0jl929jwn" class="animable"></rect><rect x="381.4" y="122.13" width="13.32" height="14.33" rx="2.28" style="fill: rgb(240, 240, 240); transform-origin: 388.06px 129.295px;" id="eloj8odd9vdlq" class="animable"></rect></g></g><g id="freepik--Shadow--inject-85" class="animable" style="transform-origin: 250px 416.24px;"><g id="freepik--shadow--inject-85" class="animable" style="transform-origin: 250px 416.24px;"><ellipse cx="250" cy="416.24" rx="193.89" ry="11.32" style="fill: rgb(245, 245, 245); transform-origin: 250px 416.24px;" id="elv3f1uuce1g" class="animable"></ellipse></g></g><g id="freepik--Images--inject-85" class="animable" style="transform-origin: 232.946px 248.662px;"><g id="freepik--photo-3--inject-85" class="animable" style="transform-origin: 217.625px 232.075px;"><rect x="109.67" y="126.37" width="215.91" height="211.41" style="fill: #000000; transform-origin: 217.625px 232.075px;" id="elevunhn8bwn" class="animable"></rect><g id="elk9oru1rx25"><rect x="109.67" y="126.37" width="215.91" height="211.41" style="opacity: 0.7; isolation: isolate; transform-origin: 217.625px 232.075px;" class="animable" id="el99ntg4d01rv"></rect></g><rect x="115.23" y="133.13" width="204.81" height="204.65" style="fill: rgb(255, 255, 255); transform-origin: 217.635px 235.455px;" id="ell92gt4hxr9e" class="animable"></rect><polygon points="325.58 334.8 325.58 337.78 216.77 337.78 240.29 314.28 272.67 281.88 325.58 334.8" style="fill: #000000; transform-origin: 271.175px 309.83px;" id="el2nfipm1voyh" class="animable"></polygon><g id="el09rcyws56t5v"><polygon points="325.58 334.8 325.58 337.78 216.77 337.78 240.29 314.28 272.67 281.88 325.58 334.8" style="opacity: 0.7; isolation: isolate; transform-origin: 271.175px 309.83px;" class="animable" id="eljsk0bx0jzd"></polygon></g><polygon points="109.67 337.78 109.67 317.46 176.57 250.56 263.79 337.78 109.67 337.78" style="fill: #000000; transform-origin: 186.73px 294.17px;" id="elsbtb280i3np" class="animable"></polygon><g id="el1hceq6aymgb"><polygon points="109.67 337.78 109.67 317.46 176.57 250.56 263.79 337.78 109.67 337.78" style="opacity: 0.7; isolation: isolate; transform-origin: 186.73px 294.17px;" class="animable" id="el0yaow4afu6i"></polygon></g><g id="elqeu4rc37p4l"><circle cx="253.23" cy="194.22" r="33.06" style="fill: #000000; transform-origin: 253.23px 194.22px; transform: rotate(-80.78deg);" class="animable" id="el5gs4rxt6n4k"></circle></g><g id="elwsuxyqbciil"><circle cx="253.23" cy="194.22" r="33.06" style="opacity: 0.7; isolation: isolate; transform-origin: 253.23px 194.22px; transform: rotate(-80.78deg);" class="animable" id="eltuffihljpjb"></circle></g></g><g id="freepik--photo-2--inject-85" class="animable" style="transform-origin: 270.865px 237.88px;"><g id="eluz7lg3jgzpq"><rect x="165.16" y="129.96" width="211.41" height="215.91" style="fill: #000000; transform-origin: 270.865px 237.915px; transform: rotate(-84.42deg);" class="animable" id="elz6vpn4xppj"></rect></g><g id="elsmrtb3swsrn"><rect x="165.16" y="129.89" width="211.41" height="215.91" style="opacity: 0.1; isolation: isolate; transform-origin: 270.865px 237.845px; transform: rotate(-84.42deg);" class="animable" id="elmmzq7j8vblb"></rect></g><g id="elvzhvke08l3n"><rect x="168.22" y="138.87" width="204.65" height="204.81" style="fill: rgb(255, 255, 255); transform-origin: 270.545px 241.275px; transform: rotate(-84.42deg);" class="animable" id="elin1lghvgxps"></rect></g><g id="el7yqh544rvk"><rect x="367.64" y="134.6" width="1" height="7.18" style="fill: #000000; transform-origin: 368.14px 138.19px; transform: rotate(-84.42deg);" class="animable" id="elnop149gjq1b"></rect></g><g id="elub6n0wb6p2"><rect x="350.09" y="126.2" width="1" height="17.66" style="fill: #000000; transform-origin: 350.59px 135.03px; transform: rotate(-84.29deg);" class="animable" id="elqid4qgexre"></rect></g><g id="eloeg1p8qxn2"><rect x="367.64" y="134.6" width="1" height="7.18" style="opacity: 0.1; isolation: isolate; transform-origin: 368.14px 138.19px; transform: rotate(-84.42deg);" class="animable" id="elr5uu4ljez6"></rect></g><g id="elkec8e02obh"><rect x="350.09" y="126.2" width="1" height="17.66" style="opacity: 0.1; isolation: isolate; transform-origin: 350.59px 135.03px; transform: rotate(-84.29deg);" class="animable" id="ellhjm3arbnxi"></rect></g><g id="el2z4dtcudskp"><polygon points="368.31 350.63 368.02 353.6 259.73 343.02 285.42 321.92 320.8 292.82 368.31 350.63" style="opacity: 0.1; isolation: isolate; transform-origin: 314.02px 323.21px;" class="animable" id="elan0ps27qkdu"></polygon></g><polygon points="368.31 350.63 368.02 353.6 259.73 343.02 285.42 321.92 320.8 292.82 368.31 350.63" style="fill: #000000; transform-origin: 314.02px 323.21px;" id="eldkxovbn6r0k" class="animable"></polygon><g id="elk9v4ud88os"><polygon points="368.31 350.63 368.02 353.6 259.73 343.02 285.42 321.92 320.8 292.82 368.31 350.63" style="opacity: 0.1; isolation: isolate; transform-origin: 314.02px 323.21px;" class="animable" id="el7cwx3reh6b4"></polygon></g><g id="el584by47q5bq"><circle cx="309.98" cy="203.7" r="33.06" style="opacity: 0.1; isolation: isolate; transform-origin: 309.98px 203.7px;" class="animable" id="el6nf9mwcfj2r"></circle></g><circle cx="309.98" cy="203.7" r="33.06" style="fill: #000000; transform-origin: 309.98px 203.7px;" id="elw1sr7hzsjbe" class="animable"></circle><g id="el2itdilaaylw"><circle cx="309.98" cy="203.7" r="33.06" style="opacity: 0.1; isolation: isolate; transform-origin: 309.98px 203.7px;" class="animable" id="elwlb3gebghm"></circle></g></g><g id="freepik--photo-1--inject-85" class="animable" style="transform-origin: 191.925px 262.657px;"><g id="elqs90bxth39g"><rect x="83.97" y="156.95" width="215.91" height="211.41" style="fill: #000000; transform-origin: 191.925px 262.655px; transform: rotate(-3.74deg);" class="animable" id="el0j3jvj5uu85l"></rect></g><g id="el4gjo7o28a6k"><rect x="89.74" y="163.7" width="204.81" height="204.65" style="fill: rgb(255, 255, 255); transform-origin: 192.145px 266.025px; transform: rotate(-3.74deg);" class="animable" id="eld5co21ob7n"></rect></g><g id="elczwc11j7bci"><rect x="83.97" y="156.95" width="215.91" height="211.41" style="fill: rgb(255, 255, 255); opacity: 0.5; isolation: isolate; transform-origin: 191.925px 262.655px; transform: rotate(-3.74deg);" class="animable" id="elxzfr2ju4r5"></rect></g><polygon points="306.33 358.14 306.52 361.11 197.95 368.2 219.88 343.22 250.08 308.78 306.33 358.14" style="fill: #000000; transform-origin: 252.235px 338.49px;" id="elj7z75o4b75" class="animable"></polygon><g id="elomiry7vgrqe"><polygon points="306.33 358.14 306.52 361.11 197.95 368.2 219.88 343.22 250.08 308.78 306.33 358.14" style="fill: rgb(255, 255, 255); opacity: 0.5; isolation: isolate; transform-origin: 252.235px 338.49px;" class="animable" id="elfe1k0f8rzt"></polygon></g><polygon points="91.07 375.18 89.75 354.91 152.15 283.79 244.86 365.14 91.07 375.18" style="fill: #000000; transform-origin: 167.305px 329.485px;" id="el008ue1n0vw4kl" class="animable"></polygon><g id="elhront4uba5v"><polygon points="91.07 375.18 89.75 354.91 152.15 283.79 244.86 365.14 91.07 375.18" style="fill: rgb(255, 255, 255); opacity: 0.5; isolation: isolate; transform-origin: 167.305px 329.485px;" class="animable" id="elxy3v9wajv7b"></polygon></g><circle cx="224.98" cy="222.58" r="33.06" style="fill: #000000; transform-origin: 224.98px 222.58px;" id="elwqen10fbt58" class="animable"></circle><g id="eld8qqtpt2sb8"><circle cx="224.98" cy="222.58" r="33.06" style="fill: rgb(255, 255, 255); opacity: 0.5; isolation: isolate; transform-origin: 224.98px 222.58px;" class="animable" id="elkfrb38189fh"></circle></g></g></g><g id="freepik--Character--inject-85" class="animable" style="transform-origin: 346.895px 281.835px;"><g id="freepik--character--inject-85" class="animable" style="transform-origin: 346.895px 281.835px;"><path d="M390.63,200.92c.71,1.31,1.3,2.47,1.88,3.73s1.15,2.47,1.7,3.72c1.07,2.5,2.07,5,3,7.65a79.48,79.48,0,0,1,2.32,8l.47,2.06.38,2.09c.14.7.22,1.42.32,2.13l.14,1.08v.71a8.34,8.34,0,0,1,0,1,15.07,15.07,0,0,1-1.3,5.53,34.51,34.51,0,0,1-2.08,4.06,63,63,0,0,1-4.83,6.85,103.72,103.72,0,0,1-11.09,11.77l-4.08-3.66c2.91-4.2,5.8-8.54,8.4-12.84a71.76,71.76,0,0,0,3.49-6.46,23.87,23.87,0,0,0,1.21-3.07,5.86,5.86,0,0,0,.36-2.11h0v-.22l-.19-.86c-.12-.58-.23-1.15-.4-1.73l-.46-1.74-.51-1.75c-.73-2.33-1.54-4.66-2.45-7s-1.87-4.63-2.88-6.92-2.12-4.63-3.14-6.74Z" style="fill: rgb(238, 193, 187); transform-origin: 389.158px 231.11px;" id="el7kjshv4x6zx" class="animable"></path><path d="M402.1,218.41l-13.61,7.19-3.28,1.74s-.77-2.25-1.86-5.52c-.88-2.61-2-5.86-3.06-9.15-.34-1-.68-2.07-1-3.09-.1-.29-.2-.57-.29-.86-2.94-9,5.22-13.05,10.77-11.89C399.27,198.82,402.1,218.41,402.1,218.41Z" style="fill: #000000; transform-origin: 390.24px 211.988px;" id="el9s2920q4kp" class="animable"></path><g id="elmfaxg19m3y"><path d="M402.1,218.41l-13.61,7.19-3.28,1.74s-.77-2.25-1.86-5.52c-.88-2.61-2-5.86-3.06-9.15-.34-1-.68-2.07-1-3.09-.1-.29-.2-.57-.29-.86-2.94-9,5.22-13.05,10.77-11.89C399.27,198.82,402.1,218.41,402.1,218.41Z" style="fill: rgb(255, 255, 255); opacity: 0.7; isolation: isolate; transform-origin: 390.24px 211.988px;" class="animable" id="el95bneobodah"></path></g><path d="M388.49,225.6l-3.28,1.74s-.77-2.25-1.86-5.52c-.88-2.61-2-5.86-3.06-9.15-.34-1-.68-2.07-1-3.09l7.5-1.47S387.81,220,388.49,225.6Z" style="fill: #000000; transform-origin: 383.89px 217.725px;" id="elaf0sak2ssna" class="animable"></path><g id="eltu64qv6tjj"><path d="M388.49,225.6l-3.28,1.74s-.77-2.25-1.86-5.52c-.88-2.61-2-5.86-3.06-9.15-.34-1-.68-2.07-1-3.09l7.5-1.47S387.81,220,388.49,225.6Z" style="fill: rgb(255, 255, 255); opacity: 0.6; isolation: isolate; transform-origin: 383.89px 217.725px;" class="animable" id="elv6e71obav7"></path></g><path d="M379.12,256.5l-7,2.33,6.35,6.81s5.53-3.31,4.11-6.44Z" style="fill: rgb(238, 193, 187); transform-origin: 377.467px 261.07px;" id="eljrcoth3pa1" class="animable"></path><polygon points="367.29 265.1 372.79 270.39 378.45 265.64 372.1 258.83 367.29 265.1" style="fill: rgb(238, 193, 187); transform-origin: 372.87px 264.61px;" id="elmnjip2dqbgi" class="animable"></polygon><polygon points="328.95 400.73 321.69 400.19 321.01 383.22 328.27 383.76 328.95 400.73" style="fill: rgb(238, 193, 187); transform-origin: 324.98px 391.975px;" id="el3x3horgxh2w" class="animable"></polygon><polygon points="375.4 407.21 368.11 407.21 362.43 390.33 369.72 390.33 375.4 407.21" style="fill: rgb(238, 193, 187); transform-origin: 368.915px 398.77px;" id="elbmn2x5yagsc" class="animable"></polygon><polygon points="321.01 383.23 321.36 391.98 328.63 392.52 328.28 383.77 321.01 383.23" style="fill: rgb(219, 151, 146); transform-origin: 324.82px 387.875px;" id="elsab9eah5gjr" class="animable"></polygon><polygon points="369.72 390.34 362.43 390.34 365.36 399.04 372.65 399.04 369.72 390.34" style="fill: rgb(219, 151, 146); transform-origin: 367.54px 394.69px;" id="elimmn3okvpb" class="animable"></polygon><path d="M375.28,397.35H361.93s-13-44.72-16.27-67.87c-.7-5-.29-11.6.76-18.76,1.79-12.25,5.41-26.16,8.42-36.54,2.68-9.23,4.89-15.68,4.89-15.68l25.09,1.87c-1.36,18.21-19.38,48.11-18.13,72.82C367.84,356,375.28,397.35,375.28,397.35Z" style="fill: #000000; transform-origin: 365.066px 327.925px;" id="elr5qwidyaxzc" class="animable"></path><g id="el3986thnz0h"><path d="M375.28,397.35H361.93s-13-44.72-16.27-67.87c-.7-5-.29-11.6.76-18.76,1.79-12.25,5.41-26.16,8.42-36.54,2.68-9.23,4.89-15.68,4.89-15.68l25.09,1.87c-1.36,18.21-19.38,48.11-18.13,72.82C367.84,356,375.28,397.35,375.28,397.35Z" style="opacity: 0.7; isolation: isolate; transform-origin: 365.066px 327.925px;" class="animable" id="elpw70fzo3zbg"></path></g><path d="M378.93,176.22c-1.56,5.2-3.57,14.82-.21,18.72,0,0-2,5.24-11.84,4.26-10.84-1.08-4.64-5.89-4.64-5.89,6.05-.83,6.34-5.23,5.71-9.46Z" style="fill: rgb(238, 193, 187); transform-origin: 369.702px 187.771px;" id="el2c4m4lisib4" class="animable"></path><path d="M360.45,168.35c-.06.58-.42,1-.8,1s-.64-.54-.59-1.13.42-1,.8-1S360.51,167.76,360.45,168.35Z" style="fill: rgb(38, 50, 56); transform-origin: 359.756px 168.285px;" id="elp79epl4crqs" class="animable"></path><path d="M360.43,168.64a20.6,20.6,0,0,1-3.29,4.72,3.38,3.38,0,0,0,2.74.81Z" style="fill: rgb(212, 130, 125); transform-origin: 358.785px 171.424px;" id="el7ajco67aba3" class="animable"></path><path d="M362.69,166.42a.34.34,0,0,1-.3-.17,2.74,2.74,0,0,0-2.08-1.36.36.36,0,0,1-.34-.36.31.31,0,0,1,.31-.33h.05a3.4,3.4,0,0,1,2.65,1.69.35.35,0,0,1-.11.48A.41.41,0,0,1,362.69,166.42Z" style="fill: rgb(38, 50, 56); transform-origin: 361.501px 165.31px;" id="elnkcuaq53ex" class="animable"></path><path d="M367.14,406.36H376a.63.63,0,0,1,.62.5l1.44,6.48a1.07,1.07,0,0,1-.83,1.27l-.24,0c-2.85-.05-4.94-.21-8.54-.21-2.21,0-6.78.23-9.84.23s-3.45-3-2.2-3.3c5.61-1.23,7.73-2.92,9.52-4.54A1.83,1.83,0,0,1,367.14,406.36Z" style="fill: rgb(38, 50, 56); transform-origin: 366.914px 410.495px;" id="elm2o0le77jx" class="animable"></path><path d="M321.34,398.56l7.94.59a.65.65,0,0,1,.58.55l.95,6.56a1.05,1.05,0,0,1-.88,1.21,1.13,1.13,0,0,1-.26,0c-2.86-.27-7-.74-10.58-1-4.21-.31-7-.46-11.94-.83-3-.22-3.58-3.3-2.32-3.48,5.78-.82,9.58-.5,14.72-3.16A3.38,3.38,0,0,1,321.34,398.56Z" style="fill: rgb(38, 50, 56); transform-origin: 317.514px 403.018px;" id="elm2wdgg3h22m" class="animable"></path><path d="M346.38,199.74c-.66,1.13-1.45,2.42-2.18,3.64s-1.53,2.46-2.32,3.67c-1.57,2.43-3.2,4.81-4.89,7.11s-3.45,4.52-5.3,6.59a45.33,45.33,0,0,1-5.18,5,28.51,28.51,0,0,1-4.69.68,27.39,27.39,0,0,1-6-.36,32.27,32.27,0,0,1-8.9-2.94c-.47-.24-.93-.5-1.38-.76l-1.26-.75-3.81,3.92c.54.62.95,1,1.44,1.52a18.55,18.55,0,0,0,1.47,1.3,31.24,31.24,0,0,0,3.15,2.33,32.26,32.26,0,0,0,7.16,3.42,32.59,32.59,0,0,0,7.94,1.57,34.15,34.15,0,0,0,8.14-.47l.83-.15.95-.62a48.15,48.15,0,0,0,7.74-6.43,79.18,79.18,0,0,0,6.36-7.21c2-2.48,3.78-5.05,5.51-7.66.86-1.33,1.69-2.67,2.5-4s1.58-2.66,2.38-4.16Z" style="fill: rgb(238, 193, 187); transform-origin: 328.255px 217.743px;" id="elm46app9t3gd" class="animable"></path><path d="M307.59,224l-5.44-4.76L298,226.42s3.87,4.34,8.42,1.61Z" style="fill: rgb(238, 193, 187); transform-origin: 302.795px 224.086px;" id="el4xjaqj9wwm9" class="animable"></path><polygon points="294.58 216.12 291.69 222.69 297.96 226.42 302.15 219.28 294.58 216.12" style="fill: rgb(238, 193, 187); transform-origin: 296.92px 221.27px;" id="eldz51ts5xgau" class="animable"></polygon><path d="M380.36,168.3c-1.16,7.14-1.47,11.37-5.46,14.7-6,5-14.55.83-15.55-6.51-.9-6.6,1.14-17.17,8.45-19.33a9.87,9.87,0,0,1,12.56,11.14Z" style="fill: rgb(238, 193, 187); transform-origin: 369.828px 170.965px;" id="el1x8o2len1ng" class="animable"></path><path d="M388.44,164.54c5.34,3.74-7.37,17.46-11.89,17.31s-13-12.68-10.22-19.35c-2.33-.94-3.08-1.25-4-3.63-1.72-4.31.35-11.5,10.91-9.48-2.62,1.78-.8,3.19,4.17,2.5-2,2.33,1.28,4.05,6.11,3.05C382.67,159.22,393.44,159.83,388.44,164.54Z" style="fill: rgb(38, 50, 56); transform-origin: 375.78px 165.445px;" id="elhwwca2yhflq" class="animable"></path><path d="M370.31,170.51a6.92,6.92,0,0,1-2.86,4.4c-2,1.35-3.76-.25-3.84-2.54-.07-2.05.88-5.23,3.19-5.66a3.09,3.09,0,0,1,3.56,2.53A3.19,3.19,0,0,1,370.31,170.51Z" style="fill: rgb(238, 193, 187); transform-origin: 367.004px 171.036px;" id="elihx0ktnt8le" class="animable"></path><g id="elujaf3bcwexr"><path d="M361.48,279.44c-.14,12.12-8.66,25.51-15.06,31.28,1.79-12.25,5.41-26.16,8.42-36.54C356.71,273.8,359.92,277.35,361.48,279.44Z" style="opacity: 0.4; isolation: isolate; transform-origin: 353.95px 292.436px;" class="animable" id="elwi7un5h1un"></path></g><path d="M364.73,407.64a2.17,2.17,0,0,1-1.4-.38,1,1,0,0,1-.36-.91.56.56,0,0,1,.29-.49c.82-.4,3.16,1,3.43,1.2a.18.18,0,0,1,.07.17.16.16,0,0,1-.13.14A7.64,7.64,0,0,1,364.73,407.64Zm-1.08-1.51a.45.45,0,0,0-.23,0,.23.23,0,0,0-.11.2.72.72,0,0,0,.24.63,3.49,3.49,0,0,0,2.58.13,7.15,7.15,0,0,0-2.48-1Z" style="fill: #000000; transform-origin: 364.861px 406.717px;" id="elvq0egfi7q" class="animable"></path><path d="M366.59,407.38h-.08c-.75-.41-2.21-2-2.06-2.82a.56.56,0,0,1,.55-.45.9.9,0,0,1,.74.22c.84.69,1,2.79,1,2.88a.21.21,0,0,1-.08.16Zm-1.47-3h-.07c-.23,0-.25.13-.26.17-.09.48.84,1.69,1.59,2.26a4.2,4.2,0,0,0-.86-2.28.57.57,0,0,0-.4-.11Z" style="fill: #000000; transform-origin: 365.59px 405.74px;" id="elqglaxmihmjl" class="animable"></path><path d="M318.85,399.63a3.48,3.48,0,0,1-2.36-.6,1,1,0,0,1-.26-.86.54.54,0,0,1,.32-.44c.92-.42,3.73,1.27,4.05,1.47a.18.18,0,0,1,.08.18.19.19,0,0,1-.15.14A13.54,13.54,0,0,1,318.85,399.63ZM316.93,398a.59.59,0,0,0-.23.05.21.21,0,0,0-.13.17.63.63,0,0,0,.17.57c.42.43,1.61.59,3.23.44A8.66,8.66,0,0,0,316.93,398Z" style="fill: #000000; transform-origin: 318.449px 398.657px;" id="el1t0qi7ki2jv" class="animable"></path><path d="M320.51,399.52h-.09c-.84-.46-2.46-2.16-2.27-3,.05-.19.2-.42.68-.44a1.33,1.33,0,0,1,.93.37,5,5,0,0,1,.92,2.88.18.18,0,0,1-.08.15Zm-1.64-3.08h0c-.32,0-.34.13-.35.17-.12.48,1,1.81,1.82,2.41a4,4,0,0,0-.79-2.31A.92.92,0,0,0,318.87,396.44Z" style="fill: #000000; transform-origin: 319.407px 397.8px;" id="elio1461840qs" class="animable"></path><path d="M346,257.48s-31.48,47.62-32.34,69.84c-.89,23.11,5.15,62.77,5.15,62.77l12.31.92s1.43-37.72,3.66-60.32c2.43-24.63,38-52.08,39.4-71.11Z" style="fill: #000000; transform-origin: 343.875px 324.245px;" id="elxp2fuuhihx" class="animable"></path><g id="el2sgcj4cirfy"><path d="M346,257.48s-31.48,47.62-32.34,69.84c-.89,23.11,5.15,62.77,5.15,62.77l12.31.92s1.43-37.72,3.66-60.32c2.43-24.63,38-52.08,39.4-71.11Z" style="opacity: 0.7; isolation: isolate; transform-origin: 343.875px 324.245px;" class="animable" id="eln6ocv7y4il8"></path></g><polygon points="359.57 397.64 377.02 397.64 377.02 392.94 357.52 392.64 359.57 397.64" style="fill: #000000; transform-origin: 367.27px 395.14px;" id="elskrxfmnt5t" class="animable"></polygon><polygon points="316.29 390.16 333.38 391.47 333.74 386.73 314.61 385.02 316.29 390.16" style="fill: #000000; transform-origin: 324.175px 388.245px;" id="ela34j466b184" class="animable"></polygon><path d="M359.57,203.09c-.52,6.94-8.74,20.47-8.74,20.47l-18.61-9.78s6.3-10.13,13.19-16.16S360.14,195.46,359.57,203.09Z" style="fill: #000000; transform-origin: 345.91px 209.111px;" id="el434nrz2x2nk" class="animable"></path><g id="elmdfyw6ws6m9"><path d="M359.57,203.09c-.52,6.94-8.74,20.47-8.74,20.47l-18.61-9.78s6.3-10.13,13.19-16.16S360.14,195.46,359.57,203.09Z" style="fill: rgb(255, 255, 255); opacity: 0.7; isolation: isolate; transform-origin: 345.91px 209.111px;" class="animable" id="el0db03lyb0ov6"></path></g><path d="M360.13,195.14c.5-1-.22-4.56-.22-4.56s15.47-2.08,21-.11c3,1.06.36,6.41.36,6.41Z" style="fill: #000000; transform-origin: 371.127px 193.251px;" id="el4nzi2slfyt3" class="animable"></path><g id="elupk3wkjmi6k"><path d="M360.13,195.14c.5-1-.22-4.56-.22-4.56s15.47-2.08,21-.11c3,1.06.36,6.41.36,6.41Z" style="opacity: 0.7; isolation: isolate; transform-origin: 371.127px 193.251px;" class="animable" id="elz0qxcfz3ohf"></path></g><path d="M384.81,260.37,346,257.48A176,176,0,0,1,344.67,228c.16-3.54.44-6.8.78-9.78,1.8-15.59,5.6-23.51,5.6-23.51a72.93,72.93,0,0,1,11.32-1.19,142.62,142.62,0,0,1,16.52,1.23,89,89,0,0,1,11.77,2.32C382.81,224.75,385.52,254.42,384.81,260.37Z" style="fill: #000000; transform-origin: 367.599px 226.945px;" id="eljeq6u6h93t" class="animable"></path><g id="el1x0cy3gv997"><path d="M384.81,260.37,346,257.48A176,176,0,0,1,344.67,228c.16-3.54.44-6.8.78-9.78,1.8-15.59,5.6-23.51,5.6-23.51a72.93,72.93,0,0,1,11.32-1.19,142.62,142.62,0,0,1,16.52,1.23,89,89,0,0,1,11.77,2.32C382.81,224.75,385.52,254.42,384.81,260.37Z" style="fill: rgb(255, 255, 255); opacity: 0.7; isolation: isolate; transform-origin: 367.599px 226.945px;" class="animable" id="elfa408bpqx8"></path></g></g></g><defs>     <filter id="active" height="200%">         <feMorphology in="SourceAlpha" result="DILATED" operator="dilate" radius="2"></feMorphology>                <feFlood flood-color="#32DFEC" flood-opacity="1" result="PINK"></feFlood>        <feComposite in="PINK" in2="DILATED" operator="in" result="OUTLINE"></feComposite>        <feMerge>            <feMergeNode in="OUTLINE"></feMergeNode>            <feMergeNode in="SourceGraphic"></feMergeNode>        </feMerge>    </filter>    <filter id="hover" height="200%">        <feMorphology in="SourceAlpha" result="DILATED" operator="dilate" radius="2"></feMorphology>                <feFlood flood-color="#ff0000" flood-opacity="0.5" result="PINK"></feFlood>        <feComposite in="PINK" in2="DILATED" operator="in" result="OUTLINE"></feComposite>        <feMerge>            <feMergeNode in="OUTLINE"></feMergeNode>            <feMergeNode in="SourceGraphic"></feMergeNode>        </feMerge>            <feColorMatrix type="matrix" values="0   0   0   0   0                0   1   0   0   0                0   0   0   0   0                0   0   0   1   0 "></feColorMatrix>    </filter></defs></svg>